
<svg width="88px" height="88px" viewBox="0 0 88 88" version="1.1" xmlns="http://www.w3.org/2000/svg" xmlns:xlink="http://www.w3.org/1999/xlink">
    <g id="simple" stroke="none" stroke-width="1" fill="none" fill-rule="evenodd">
        <g id="iPhone-8-Copy" transform="translate(-159.000000, -27.000000)" fill-rule="nonzero">
            <g id="add-calendar_1002631" transform="translate(159.000000, 27.000000)">
                <path d="M44,0 C19.6992889,0 0,19.6983111 0,44 C0,68.3016889 19.6992889,88 44,88 C68.3016889,88 88,68.3016889 88,44 C88,19.6983111 68.3016889,0 44,0 Z" id="Path" fill="#FFFFFF"></path>
                <path d="M60.9552239,45.9215385 L60.9552239,27.9153846 C60.9552239,27.1707692 60.3507463,26.5615385 59.6119403,26.5615385 L52.8955224,26.5615385 L52.8955224,23.8538462 C52.8955224,23.1092308 52.2910448,22.5 51.5522388,22.5 L46.8507463,22.5 C46.1119403,22.5 45.5074627,23.1092308 45.5074627,23.8538462 L45.5074627,26.5615385 L37.4477612,26.5615385 L37.4477612,23.8538462 C37.4477612,23.1092308 36.8432836,22.5 36.1044776,22.5 L31.4029851,22.5 C30.6641791,22.5 30.0597015,23.1092308 30.0597015,23.8538462 L30.0597015,26.5615385 L23.3432836,26.5615385 C22.6044776,26.5615385 22,27.1707692 22,27.9153846 L22,59.0538462 C22,59.7984615 22.6044776,60.4076923 23.3432836,60.4076923 L46.5820896,60.4076923 C48.3283582,63.9953846 52.0223881,66.5 56.2537313,66.5 C62.1641791,66.5 67,61.6261538 67,55.6692308 C67,51.4046154 64.5149254,47.6815385 60.9552239,45.9215385 Z M48.1940299,25.2076923 L50.2089552,25.2076923 L50.2089552,30.6230769 L48.1940299,30.6230769 L48.1940299,25.2076923 Z M32.7462687,25.2076923 L34.761194,25.2076923 L34.761194,30.6230769 L32.7462687,30.6230769 L32.7462687,25.2076923 Z M24.6865672,57.7 L24.6865672,38.7461538 L58.2686567,38.7461538 L58.2686567,45.0415385 C57.5970149,44.9061538 56.9253731,44.8384615 56.2537313,44.8384615 C50.3432836,44.8384615 45.5074627,49.7123077 45.5074627,55.6692308 C45.5074627,56.3461538 45.5746269,57.0230769 45.7089552,57.7 L24.6865672,57.7 Z M56.2537313,63.7923077 C51.8208955,63.7923077 48.1940299,60.1369231 48.1940299,55.6692308 C48.1940299,51.2015385 51.8208955,47.5461538 56.2537313,47.5461538 C60.6865672,47.5461538 64.3134328,51.2015385 64.3134328,55.6692308 C64.3134328,60.1369231 60.6865672,63.7923077 56.2537313,63.7923077 Z M60.9552239,55.6692308 C60.9552239,56.4138462 60.3507463,57.0230769 59.6119403,57.0230769 L57.5970149,57.0230769 L57.5970149,59.0538462 C57.5970149,59.7984615 56.9925373,60.4076923 56.2537313,60.4076923 C55.5149254,60.4076923 54.9104478,59.7984615 54.9104478,59.0538462 L54.9104478,57.0230769 L52.8955224,57.0230769 C52.1567164,57.0230769 51.5522388,56.4138462 51.5522388,55.6692308 C51.5522388,54.9246154 52.1567164,54.3153846 52.8955224,54.3153846 L54.9104478,54.3153846 L54.9104478,52.2846154 C54.9104478,51.54 55.5149254,50.9307692 56.2537313,50.9307692 C56.9925373,50.9307692 57.5970149,51.54 57.5970149,52.2846154 L57.5970149,54.3153846 L59.6119403,54.3153846 C60.3507463,54.3153846 60.9552239,54.9246154 60.9552239,55.6692308 Z" id="Shape" fill="#383838"></path>
            </g>
        </g>
    </g>
</svg>