
<svg width="88px" height="88px" viewBox="0 0 88 88" version="1.1" xmlns="http://www.w3.org/2000/svg" xmlns:xlink="http://www.w3.org/1999/xlink">
    <g id="simple" stroke="none" stroke-width="1" fill="none" fill-rule="evenodd">
        <g id="iPhone-8-Copy" transform="translate(-37.000000, -27.000000)" fill="#FFFFFF" fill-rule="nonzero">
            <g id="noun_link_670654" transform="translate(37.000000, 27.000000)">
                <path d="M44,0 C19.6992889,0 0,19.6983111 0,44 C0,68.3016889 19.6992889,88 44,88 C68.3016889,88 88,68.3016889 88,44 C88,19.6983111 68.3016889,0 44,0 Z M45.4942,56.1526889 L41.3829111,60.2632889 C39.5966222,62.0509556 37.2495778,62.9437556 34.9032222,62.9437556 C32.5575556,62.9437556 30.2098222,62.0509556 28.4249111,60.2632889 L27.7387778,59.5771556 C26.0089778,57.8480444 25.0555556,55.5471556 25.0555556,53.1009111 C25.0555556,50.6526 26.0082889,48.3517111 27.7387778,46.6219111 L34.3183556,40.0430222 C35.6837333,38.6769556 37.4121556,37.7896667 39.3162444,37.4789778 C42.2226667,37.0043333 45.1959111,37.9632667 47.2763556,40.0430222 L47.9618,40.7277778 C48.3028,41.0687778 48.6155556,41.4359556 48.8945556,41.8189778 C49.5111111,42.6656222 49.3237333,43.8505111 48.4784667,44.4663778 C47.6318222,45.0829333 46.4476222,44.8955556 45.8310667,44.0496 C45.6671111,43.8243333 45.4824889,43.6080222 45.2806444,43.4068667 L44.5979556,42.7228 C43.3779333,41.5034667 41.6322889,40.9427111 39.9266,41.2182667 C38.8126667,41.4008222 37.7993111,41.9209333 36.9981333,42.7221111 L30.4192444,49.3003111 C29.4045111,50.3143556 28.8444444,51.6632 28.8444444,53.0988444 C28.8444444,54.5344889 29.4045111,55.8833333 30.4185556,56.8980667 L31.104,57.5842 C33.1996,59.6784222 36.6075333,59.6784222 38.7038222,57.5835111 L42.8151111,53.4729111 C43.5549778,52.7330444 44.7536444,52.7337333 45.4948889,53.4729111 C46.2340667,54.2127778 46.2340667,55.4121333 45.4942,56.1526889 Z M60.2639778,41.3808444 L53.6871556,47.9590444 C52.3183333,49.3264889 50.5885333,50.2130889 48.6858222,50.5230889 C48.1967111,50.6023111 47.7048444,50.6429556 47.2164222,50.6429556 C44.8046222,50.6429556 42.4568889,49.6881556 40.7277778,47.9604222 L40.0416444,47.2736 C39.7013333,46.9326 39.3885778,46.5661111 39.1088889,46.1824 C38.4923333,45.3357556 38.6790222,44.1508667 39.5249778,43.535 C40.3716222,42.9184444 41.5565111,43.1058222 42.1723778,43.9510889 C42.3370222,44.1777333 42.5230222,44.3947333 42.7234889,44.5965778 L43.4075556,45.2806444 C44.6262,46.4986 46.3711556,47.0593556 48.0768444,46.7831111 C49.1907778,46.6005556 50.2041333,46.0811333 51.006,45.2792667 L57.5848889,38.7003778 C59.6798,36.6061556 59.6798,33.1961556 57.5848889,31.1005556 L56.9001333,30.4164889 C54.8038444,28.3215778 51.3959111,28.3215778 49.2996222,30.4164889 L45.1890222,34.5277778 C44.4491556,35.2676444 43.2491111,35.2676444 42.5092444,34.5277778 C41.7693778,33.7886 41.7693778,32.5885556 42.5092444,31.848 L46.6205333,27.7367111 C50.1938,24.1641333 56.0066444,24.1634444 59.5792222,27.7367111 L60.2639778,28.4207778 C63.8379333,31.9954222 63.8372444,37.8089556 60.2639778,41.3808444 Z" id="Shape"></path>
            </g>
        </g>
    </g>
</svg>